<svg xmlns="http://www.w3.org/2000/svg" xmlns:xlink="http://www.w3.org/1999/xlink" version="1.1" id="Layer_1" x="0px" y="0px" viewBox="0 0 48 48" style="enable-background:new 0 0 48 48;" xml:space="preserve">
<polygon style="fill:#E89531;" points="33,36 20,41 15,39 15,32 20,37 33,32 "></polygon>
<path style="fill:#E89531;" d="M22.1,37.9l2.1-4.6l-7.7-3.6c-1.3-0.6-2.7,0-3.3,1.2c-0.6,1.3,0,2.8,1.2,3.3L22.1,37.9z"></path>
<path style="fill:#E89531;" d="M17.5,38.3l2.1-4.6l-7.7-3.6c-1.3-0.6-2.7,0-3.3,1.2c-0.6,1.3,0,2.8,1.2,3.3L17.5,38.3z"></path>
<path style="fill:#FFB74D;" d="M4.2,32.6c0.5-1.3,2-1.9,3.3-1.3l8,3.5c-0.1,0.8,0.1,1.6,0.3,2.3c1.3,3.4,4.6,3.1,6.1,2.5l9.3-3.6  l0,0c0.3-0.1,0.5-0.3,0.6-0.6c0.2-0.5,0-1.1-0.5-1.3c-0.2-0.1-0.5-0.1-0.7,0l0,0h-0.1l0,0l-9.3,3.6c-0.3,0.1-2.7,1-3.6-1.3  c-0.1-0.2-0.1-0.4-0.2-0.6l0,0c-0.2-1.4,1-2.2,1.7-2.5L31,28.6c4-1.8,13,2.1,13,2.1l-3.4,8.4l-3.7-1.6l-13.1,5.3  c-0.7,0.3-1.5,0.3-2.2,0.1l0,0l0,0c-0.1,0-0.3-0.1-0.4-0.1L5.5,35.9C4.2,35.4,3.7,33.9,4.2,32.6z"></path>
<polygon style="fill:#81C784;" points="5.079,5 18.123,25 34.875,14.074 28.957,5 "></polygon>
<polygon style="fill:#1B5E20;" points="26.569,5 32.107,13.491 18.706,22.232 7.466,5 5.079,5 18.123,25 34.875,14.074 28.957,5 "></polygon>
<ellipse transform="matrix(0.8376 -0.5463 0.5463 0.8376 -8.7054 13.7974)" style="fill:#1B5E20;" cx="18.852" cy="21.54" rx="2.5" ry="2.5"></ellipse>
<polygon style="fill:#A5D6A7;" points="4.458,5 26.417,26.958 39.958,13.417 31.542,5 "></polygon>
<ellipse transform="matrix(0.7071 -0.7071 0.7071 0.7071 -2.5911 24.6403)" style="fill:#388E3C;" cx="28.448" cy="15.448" rx="1.915" ry="1.915"></ellipse>
<path style="fill:#388E3C;" d="M25.313,25.687l3.374-3.374c-0.112-0.207-0.245-0.406-0.419-0.581c-0.976-0.976-2.559-0.976-3.536,0  c-0.976,0.976-0.976,2.559,0,3.536C24.907,25.443,25.106,25.575,25.313,25.687z"></path>
<path style="fill:#388E3C;" d="M35.313,15.687l3.374-3.374c-0.112-0.207-0.245-0.406-0.419-0.581c-0.976-0.976-2.559-0.976-3.536,0  c-0.976,0.976-0.976,2.559,0,3.536C34.907,15.443,35.106,15.575,35.313,15.687z"></path>
<path style="fill:#388E3C;" d="M16.116,5c-1.361,2.214-1.097,5.145,0.821,7.063c2.244,2.244,5.881,2.244,8.125,0  C26.98,10.145,27.245,7.214,25.884,5H16.116z"></path>
<polygon style="fill:#388E3C;" points="28.833,5 37.25,13.417 26.417,24.25 7.167,5 4.458,5 26.417,26.958 39.958,13.417 31.542,5   "></polygon>
<ellipse transform="matrix(0.7071 -0.7071 0.7071 0.7071 -2.5989 24.6516)" style="fill:#388E3C;" cx="28.458" cy="15.463" rx="1.91" ry="1.91"></ellipse>
</svg>
