<?xml version="1.0" encoding="utf-8"?>
<!-- Generator: Adobe Illustrator 21.0.0, SVG Export Plug-In . SVG Version: 6.00 Build 0)  -->
<svg version="1.1" id="Layer_1" xmlns="http://www.w3.org/2000/svg" xmlns:xlink="http://www.w3.org/1999/xlink" x="0px" y="0px"
	 viewBox="0 0 612 612" style="enable-background:new 0 0 612 612;" xml:space="preserve">
<style type="text/css">
	.st0{fill:#0574BB;}
	.st1{fill:#25A9E1;}
</style>
<g>
	<g>
		<polygon class="st0" points="332.7,359.3 418.9,445.6 306,558.5 193.1,445.6 281.9,356.7 281.8,356.7 305.8,332.7 306,332.9 
			472.4,166.4 306,0 139.6,166.4 252.5,279.4 279.3,252.7 193.1,166.4 306,53.5 418.9,166.4 330.1,255.3 330.2,255.3 306.2,279.3 
			306,279.1 139.6,445.6 306,612 472.4,445.6 359.5,332.6 		"/>
	</g>
	<g>
		<polygon class="st1" points="252.7,332.7 166.4,418.9 53.5,306 166.4,193.1 255.3,281.9 255.3,281.8 279.3,305.8 279.1,306 
			445.6,472.4 612,306 445.6,139.6 332.6,252.5 359.3,279.3 445.6,193.1 558.5,306 445.6,418.9 356.7,330.1 356.7,330.2 
			332.7,306.2 332.9,306 166.4,139.6 0,306 166.4,472.4 279.4,359.5 		"/>
	</g>
</g>
</svg>
